# xmcd
#
# Track frame offsets:
#	150
#	15726
#	34588
#	47641
#	58046
#	74708
#	91670
#	103795
#	115302
#	127069
#
# Disc length: 1875 seconds
#
# Revision: 0
# Processed by: cddbd v1.5.2PL0 Copyright (c) Steve Scherf et al.
# Submitted via: dBpowerAMP V4.0
#
DISCID=8907510a
DTITLE=Tião do Pinho e Morenito - Provas Concretas
DYEAR=2008
DGENRE=Country
TTITLE0=Provas Concretas
TTITLE1=Revelação
TTITLE2=Invejoso
TTITLE3=Desiludido
TTITLE4=Parabens para Barretos
TTITLE5=A mulata e a viola
TTITLE6=Heroi resistente
TTITLE7=Eu e você viola
TTITLE8=Tributo a um rei
TTITLE9=Minha Felicidade
EXTD=
EXTT0=
EXTT1=
EXTT2=
EXTT3=
EXTT4=
EXTT5=
EXTT6=
EXTT7=
EXTT8=
EXTT9=
PLAYORDER=
